# xmcd
#
# Track frame offsets:
#	150
#	16870
#	31037
#	48210
#	61759
#	78311
#	98243
#	113804
#	135078
#	148691
#	165902
#
# Disc length: 2481 seconds
#
# Revision: 3
# Processed by: cddbd v1.5.2PL0 Copyright (c) Steve Scherf et al.
# Submitted via: EasyCDDAExtractor 12.0.1.1
#
DISCID=7409af0b
DTITLE=Nola - Iznad oblaka
DYEAR=2009
DGENRE=Blues
TTITLE0=iznad oblaka
TTITLE1=dan
TTITLE2=zauvijek
TTITLE3=ljubis me
TTITLE4=bez tebe
TTITLE5=do kraja
TTITLE6=spavaj
TTITLE7=prozor
TTITLE8=umorna
TTITLE9=kad (na,na,na)
TTITLE10=more zna
EXTD=
EXTT0=
EXTT1=
EXTT2=
EXTT3=
EXTT4=
EXTT5=
EXTT6=
EXTT7=
EXTT8=
EXTT9=
EXTT10=
PLAYORDER=
